<svg width="165" height="33" viewBox="0 0 165 33" fill="none" xmlns="http://www.w3.org/2000/svg">
<path d="M16.392 21.072V9.764H21.628V21.072C21.628 24.6213 20.66 27.3493 18.724 29.256C16.788 31.1333 14.1773 32.072 10.892 32.072C7.60667 32.072 4.996 31.1333 3.06 29.256C1.124 27.3787 0.156 24.6507 0.156 21.072V9.764H5.392V21.072C5.392 23.096 5.876 24.6213 6.844 25.648C7.84133 26.6747 9.19067 27.188 10.892 27.188C12.5933 27.188 13.928 26.6747 14.896 25.648C15.8933 24.6213 16.392 23.096 16.392 21.072ZM47.4093 31.5H42.1733V20.192C42.1733 18.168 41.6746 16.6427 40.6773 15.616C39.7093 14.5893 38.3746 14.076 36.6733 14.076C34.9719 14.076 33.6226 14.5893 32.6253 15.616C31.6573 16.6427 31.1733 18.168 31.1733 20.192V31.5H25.9373V20.192C25.9373 16.6427 26.9053 13.9293 28.8413 12.052C30.7773 10.1453 33.3879 9.192 36.6733 9.192C39.9586 9.192 42.5693 10.1307 44.5053 12.008C46.4413 13.8853 47.4093 16.6133 47.4093 20.192V31.5Z" fill="#1E1E1E"/>
<path d="M69.4945 22.568V23.14C69.4945 26.0733 68.6878 28.3027 67.0745 29.828C65.4905 31.324 63.3345 32.072 60.6065 32.072C57.8785 32.072 55.7078 31.324 54.0945 29.828C52.5105 28.3027 51.7185 26.0733 51.7185 23.14V2.504H56.9545V9.764H68.1745V14.516H56.9545V23.14C56.9545 25.8387 58.1718 27.188 60.6065 27.188C63.0412 27.188 64.2585 25.8387 64.2585 23.14V22.568H69.4945ZM76.2891 7.168C75.3211 7.168 74.4997 6.83067 73.8251 6.156C73.1504 5.48133 72.8131 4.66 72.8131 3.692C72.8131 2.69467 73.1504 1.85867 73.8251 1.184C74.4997 0.509333 75.3211 0.171999 76.2891 0.171999C77.2864 0.171999 78.1077 0.509333 78.7531 1.184C79.4277 1.85867 79.7651 2.69467 79.7651 3.692C79.7651 4.66 79.4277 5.48133 78.7531 6.156C78.1077 6.83067 77.2864 7.168 76.2891 7.168ZM78.9291 31.5H73.6931V9.764H78.9291V31.5ZM101.764 22.568V23.14C101.764 26.0733 100.957 28.3027 99.344 29.828C97.76 31.324 95.604 32.072 92.876 32.072C90.148 32.072 87.9774 31.324 86.364 29.828C84.78 28.3027 83.988 26.0733 83.988 23.14V2.504H89.224V9.764H100.444V14.516H89.224V23.14C89.224 25.8387 90.4414 27.188 92.876 27.188C95.3107 27.188 96.528 25.8387 96.528 23.14V22.568H101.764ZM111.199 31.5H105.963V0.259998H111.199V31.5ZM138.698 22.48H120.878V22.568C121.23 24.0347 121.948 25.1933 123.034 26.044C124.119 26.8947 125.468 27.32 127.082 27.32C129.428 27.32 131.144 26.6307 132.23 25.252H137.818C136.996 27.3347 135.632 28.992 133.726 30.224C131.848 31.456 129.634 32.072 127.082 32.072C123.65 32.072 120.834 31.0013 118.634 28.86C116.463 26.6893 115.378 23.9467 115.378 20.632C115.378 17.3173 116.463 14.5893 118.634 12.448C120.834 10.2773 123.65 9.192 127.082 9.192C130.484 9.192 133.271 10.2773 135.442 12.448C137.612 14.5893 138.698 17.3173 138.698 20.632V22.48ZM127.082 13.944C125.556 13.944 124.266 14.3253 123.21 15.088C122.154 15.8213 121.42 16.8627 121.01 18.212V18.3H133.154V18.212C132.743 16.892 131.995 15.8507 130.91 15.088C129.854 14.3253 128.578 13.944 127.082 13.944ZM164.565 0.259998V20.456C164.565 23.9467 163.494 26.7627 161.353 28.904C159.211 31.016 156.41 32.072 152.949 32.072C149.517 32.072 146.701 31.0013 144.501 28.86C142.33 26.6893 141.245 23.9467 141.245 20.632C141.245 17.024 142.315 14.2227 144.457 12.228C146.627 10.204 149.135 9.192 151.981 9.192C153.594 9.192 155.031 9.51467 156.293 10.16C157.554 10.8053 158.537 11.6853 159.241 12.8H159.329V0.259998H164.565ZM148.285 25.384C149.487 26.5867 151.042 27.188 152.949 27.188C154.855 27.188 156.395 26.5867 157.569 25.384C158.742 24.152 159.329 22.568 159.329 20.632C159.329 18.696 158.742 17.1267 157.569 15.924C156.395 14.692 154.855 14.076 152.949 14.076C151.042 14.076 149.487 14.692 148.285 15.924C147.111 17.1267 146.525 18.696 146.525 20.632C146.525 22.568 147.111 24.152 148.285 25.384Z" fill="#51DF93"/>
</svg>
